#N canvas 0 47 1366 702 10;
#X obj 161 384 output~;
#X obj 300 195 *~;
#X obj 130 301 +~;
#N canvas 28 57 731 589 randomnoise 0;
#X obj 83 394 noise~;
#X obj 264 394 fexpr~ (0.14*$x1-0.99*$y[-2]);
#X obj 161 93 random 2;
#X floatatom 281 148 5 0 0 0 - - -, f 5;
#X obj 264 360 noise~;
#X obj 161 433 multiplex~ 0 1;
#X obj 160 60 r setnoise;
#X obj 161 535 outlet~;
#X obj 392 182 sel 0;
#X obj 246 181 sel 1;
#X obj 246 261 print Tipo de ruido;
#X msg 244 224 banda estreita;
#X msg 390 219 banda larga;
#X obj 392 262 print Tipo de ruido;
#X obj 281 75 r printtiporuido;
#X obj 209 136 +;
#X msg 240 23 0;
#X connect 0 0 5 0;
#X connect 1 0 5 1;
#X connect 2 0 5 0;
#X connect 2 0 15 1;
#X connect 3 0 9 0;
#X connect 3 0 8 0;
#X connect 4 0 1 0;
#X connect 5 0 7 0;
#X connect 6 0 2 0;
#X connect 8 0 12 0;
#X connect 9 0 11 0;
#X connect 11 0 10 0;
#X connect 12 0 13 0;
#X connect 14 0 15 0;
#X connect 15 0 3 0;
#X connect 16 0 15 0;
#X restore 269 103 pd randomnoise;
#N canvas 64 50 278 451 rampaenvelope 0;
#X obj 74 317 line~;
#X obj 72 363 *~;
#X msg 130 244 0 \, 1 20000;
#X msg 44 242 0;
#X obj 130 58 random 20000;
#X floatatom 78 78 5 0 0 0 - - -, f 5;
#X obj 130 171 delay;
#X obj 130 118 t b f;
#X obj 44 170 r pararuido;
#X obj 130 18 r setrampa;
#X obj 71 424 outlet~;
#X connect 0 0 1 0;
#X connect 0 0 1 1;
#X connect 1 0 10 0;
#X connect 2 0 0 0;
#X connect 3 0 0 0;
#X connect 4 0 5 0;
#X connect 4 0 7 0;
#X connect 6 0 2 0;
#X connect 7 0 6 0;
#X connect 7 1 6 1;
#X connect 8 0 3 0;
#X connect 9 0 4 0;
#X restore 374 102 pd rampaenvelope;
#N canvas 61 80 873 338 listentokeyboard 0;
#X obj 299 16 key;
#X obj 634 83 select 116;
#X floatatom 191 57 5 0 0 0 - - -, f 5;
#X obj 448 87 sel 97;
#X obj 271 87 sel 112;
#X obj 636 131 t b b b b;
#X obj 197 212 send pararuido;
#X obj 142 209 s stop;
#X obj 448 141 s openpnel;
#X obj 782 173 s open;
#X obj 721 175 s play;
#X obj 561 181 s setrampa;
#X obj 645 178 s setnoise;
#X obj 417 208 s printnivelruido;
#X obj 303 211 s printtiporuido;
#X obj 244 141 t b b b b b;
#X obj 49 264 print -;
#X msg 49 208 --------;
#X connect 0 0 2 0;
#X connect 0 0 1 0;
#X connect 0 0 3 0;
#X connect 0 0 4 0;
#X connect 1 0 5 0;
#X connect 3 0 8 0;
#X connect 4 0 15 0;
#X connect 5 0 11 0;
#X connect 5 1 12 0;
#X connect 5 2 10 0;
#X connect 5 3 9 0;
#X connect 15 0 17 0;
#X connect 15 1 7 0;
#X connect 15 2 6 0;
#X connect 15 3 14 0;
#X connect 15 4 13 0;
#X connect 17 0 16 0;
#X restore 541 102 pd listentokeyboard;
#N canvas 775 50 346 306 printnivelruido 0;
#X obj 171 86 env~;
#X floatatom 173 147 5 0 0 0 - - -, f 5;
#X obj 157 259 print Nivel do ruido em dBs:;
#X obj 47 97 r printnivelruido;
#X obj 158 194 +;
#X msg 24 148 0;
#X obj 171 12 inlet~;
#X connect 0 0 1 0;
#X connect 1 0 4 1;
#X connect 3 0 4 0;
#X connect 4 0 2 0;
#X connect 5 0 4 0;
#X connect 6 0 0 0;
#X restore 323 248 pd printnivelruido;
#N canvas 253 50 606 357 musicaescolhida 0;
#X obj 211 56 openpanel;
#X msg 212 138 open C:/Users/Nicolas/Documents/AudioProgramming/Pd/ep1/h-a-r-r-y-and-the-addict-songs-of-metal-and-flesh.wav
;
#X msg 75 177 start;
#X msg 143 173 stop;
#X msg 210 94 set open \$1;
#X obj 143 145 r stop;
#X obj 211 25 r openpnel;
#X obj 145 108 r open;
#X obj 74 147 r play;
#X obj 235 310 outlet~;
#X obj 235 249 readsf~ 2;
#X obj 294 309 outlet~;
#X connect 0 0 4 0;
#X connect 1 0 10 0;
#X connect 2 0 10 0;
#X connect 3 0 10 0;
#X connect 4 0 1 0;
#X connect 5 0 3 0;
#X connect 6 0 0 0;
#X connect 7 0 1 0;
#X connect 8 0 2 0;
#X connect 10 0 9 0;
#X connect 10 1 11 0;
#X restore 68 102 pd musicaescolhida;
#X text 75 83 comment;
#X obj 242 301 +~;
#X text 139 23 'a': open a .wav or .aiff audio file;
#X text 45 23 Instructions:;
#X text 139 38 't': play chosen file;
#X text 140 53 'p': stop playing and print noise level to console;
#X connect 1 0 2 1;
#X connect 1 0 6 0;
#X connect 1 0 9 1;
#X connect 2 0 0 0;
#X connect 3 0 1 0;
#X connect 4 0 1 1;
#X connect 7 0 2 0;
#X connect 7 1 9 0;
#X connect 9 0 0 1;
