#N canvas 885 321 450 300 10;
#X obj 24 35 inlet~;
#X obj 121 36 inlet~;
#X obj 106 207 FMdinamica~;
#X msg 235 62 0;
#X obj 235 35 loadbang;
#X obj 297 35 loadbang;
#X text 125 18 freq;
#X text 13 16 amplitude;
#X obj 106 251 outlet~;
#X msg 297 63 25;
#X obj 120 63 expr~ $v1*80/55;
#X connect 0 0 2 0;
#X connect 1 0 2 2;
#X connect 1 0 10 0;
#X connect 2 0 8 0;
#X connect 3 0 2 3;
#X connect 4 0 3 0;
#X connect 5 0 9 0;
#X connect 9 0 2 4;
#X connect 10 0 2 1;
