#N canvas 898 279 450 300 10;
#X obj 24 35 inlet~;
#X obj 90 35 inlet~;
#X obj 181 35 inlet~;
#X obj 116 217 FMdinamica~;
#X obj 256 35 loadbang;
#X obj 327 35 loadbang;
#X text 94 18 freq;
#X text 13 18 amplitude;
#X text 182 18 detune;
#X obj 136 118 +~;
#X obj 116 241 outlet~;
#X msg 327 59 2;
#X obj 90 109 *~ 3;
#X obj 136 82 *~ 2;
#X msg 256 58 4;
#X connect 0 0 3 0;
#X connect 1 0 12 0;
#X connect 1 0 13 0;
#X connect 2 0 9 1;
#X connect 3 0 10 0;
#X connect 4 0 14 0;
#X connect 5 0 11 0;
#X connect 9 0 3 2;
#X connect 11 0 3 4;
#X connect 12 0 3 1;
#X connect 13 0 9 0;
#X connect 14 0 3 3;
