#N canvas 182 62 510 400 10;
#X obj 82 32 inlet~;
#X obj 151 32 inlet~;
#X obj 215 33 inlet;
#X obj 297 34 inlet;
#X obj 11 32 inlet~;
#X text 221 15 I1;
#X text 306 16 I2;
#X text 158 17 FM;
#X text 20 13 ENV;
#X text 84 15 FC;
#X obj 222 98 -;
#X obj 207 142 *~;
#X obj 208 201 +~;
#X obj 209 268 *~;
#X obj 82 330 FMsimples~;
#X obj 82 354 outlet~;
#X floatatom 278 137 5 0 0 0 - - -;
#X connect 0 0 14 0;
#X connect 1 0 13 1;
#X connect 1 0 14 1;
#X connect 2 0 10 1;
#X connect 2 0 12 1;
#X connect 3 0 10 0;
#X connect 4 0 11 0;
#X connect 4 0 14 3;
#X connect 10 0 11 1;
#X connect 10 0 16 0;
#X connect 11 0 12 0;
#X connect 12 0 13 0;
#X connect 13 0 14 2;
#X connect 14 0 15 0;
