#N canvas 96 343 450 300 10;
#X obj 74 45 inlet~;
#X obj 130 47 inlet~;
#X obj 187 45 inlet~;
#X obj 116 217 FMdinamica~;
#X msg 195 125 0;
#X obj 195 92 loadbang;
#X obj 256 92 loadbang;
#X text 134 24 freq;
#X text 63 22 amplitude;
#X text 195 20 detune;
#X obj 159 118 +~;
#X obj 116 241 outlet~;
#X obj 120 121 *~ 5;
#X msg 237 126 1.5;
#X connect 0 0 3 0;
#X connect 1 0 10 0;
#X connect 1 0 12 0;
#X connect 2 0 10 1;
#X connect 3 0 11 0;
#X connect 4 0 3 3;
#X connect 5 0 4 0;
#X connect 6 0 13 0;
#X connect 10 0 3 2;
#X connect 12 0 3 1;
#X connect 13 0 3 4;
