#N canvas 55 95 450 300 10;
#X obj 64 35 inlet~;
#X obj 120 37 inlet~;
#X obj 177 35 inlet~;
#X obj 106 207 FMdinamica~;
#X msg 185 115 0;
#X msg 227 116 5;
#X obj 185 82 loadbang;
#X obj 246 82 loadbang;
#X text 124 14 freq;
#X text 53 12 amplitude;
#X text 185 10 detune;
#X obj 149 108 +~;
#X obj 106 231 outlet~;
#X connect 0 0 3 0;
#X connect 1 0 3 1;
#X connect 1 0 11 0;
#X connect 2 0 11 1;
#X connect 3 0 12 0;
#X connect 4 0 3 3;
#X connect 5 0 3 4;
#X connect 6 0 4 0;
#X connect 7 0 5 0;
#X connect 11 0 3 2;
