#N canvas 506 347 450 300 10;
#X obj 64 35 inlet~;
#X obj 180 37 inlet~;
#X obj 106 207 FMdinamica~;
#X msg 315 115 0;
#X obj 315 82 loadbang;
#X obj 376 82 loadbang;
#X text 184 14 freq;
#X text 53 12 amplitude;
#X obj 106 231 outlet~;
#X msg 357 116 10;
#X obj 297 202 sqrt;
#X obj 306 264 expr sqrt(2);
#X obj 233 98 *~ 2;
#X obj 98 95 expr~ $v1*sqrt(2);
#X connect 0 0 2 0;
#X connect 1 0 12 0;
#X connect 1 0 13 0;
#X connect 2 0 8 0;
#X connect 3 0 2 3;
#X connect 4 0 3 0;
#X connect 5 0 9 0;
#X connect 9 0 2 4;
#X connect 12 0 2 2;
#X connect 13 0 2 1;
