#N canvas 318 107 473 396 10;
#X obj 19 22 inlet~;
#X obj 88 156 FMdinamica~;
#X text 21 5 ENV;
#X obj 94 23 inlet~;
#X obj 161 23 inlet~;
#X obj 225 23 inlet~;
#X obj 286 23 inlet~;
#X obj 348 23 inlet;
#X obj 401 23 inlet;
#X text 100 5 FC1;
#X text 168 6 FC2;
#X text 231 6 FC3;
#X text 296 7 FM;
#X text 355 5 I1;
#X text 409 5 I2;
#X obj 197 156 FMdinamica~;
#X obj 302 155 FMdinamica~;
#X obj 152 333 outlet~;
#X text 186 257 para evitar clipping;
#X obj 153 259 /~ 3;
#X connect 0 0 1 0;
#X connect 0 0 15 0;
#X connect 0 0 16 0;
#X connect 1 0 19 0;
#X connect 3 0 1 1;
#X connect 4 0 15 1;
#X connect 5 0 16 1;
#X connect 6 0 16 2;
#X connect 6 0 15 2;
#X connect 6 0 1 2;
#X connect 7 0 1 3;
#X connect 7 0 15 3;
#X connect 7 0 16 3;
#X connect 8 0 16 4;
#X connect 8 0 15 4;
#X connect 8 0 1 4;
#X connect 15 0 19 0;
#X connect 16 0 19 0;
#X connect 19 0 17 0;
