#N canvas 291 22 1629 923 10;
#X obj 115 89 midiin;
#X obj 107 162 midiparse;
#X obj 130 29 coll;
#C restore;
#X obj 373 168 seq;
#X obj 373 201 midiparse;
#X obj 373 451 unpack f f;
#X floatatom 373 481 5 0 0 0 - - -;
#X floatatom 438 481 5 0 0 0 - - -;
#X text 372 497 pitch;
#X text 437 498 velocity;
#X text 455 451 note on messages;
#X obj 381 382 unpack f f;
#X floatatom 381 412 5 0 0 0 - - -;
#X floatatom 446 412 5 0 0 0 - - -;
#X text 380 427 aftert;
#X text 446 429 pitch;
#X text 459 382 poly aftertouch messages;
#X obj 390 319 unpack f f;
#X floatatom 390 349 5 0 0 0 - - -;
#X floatatom 455 349 5 0 0 0 - - -;
#X text 389 364 value;
#X text 455 364 ctrl nr;
#X text 469 319 controller messages;
#X floatatom 398 295 5 0 0 0 - - -;
#X floatatom 407 273 5 0 0 0 - - -;
#X floatatom 415 250 5 0 0 0 - - -;
#X floatatom 424 227 5 0 0 0 - - -;
#X text 445 295 program change;
#X text 460 251 pitch bend;
#X text 452 275 aftertouch;
#X text 467 226 channel number;
#X obj 368 91 bng 15 250 50 0 empty empty empty 17 7 0 10 -262144 -1
-1;
#X msg 244 101 60;
#X obj 255 149 mtof;
#X floatatom 185 206 5 0 0 0 - - -;
#X obj 376 518 mtof;
#X floatatom 302 637 5 0 0 0 - - -;
#X msg 373 134 read pinkmidi.mid;
#X msg 464 90 stop;
#X obj 613 710 ASR~;
#X msg 628 541 0.7;
#X msg 727 580 300;
#X msg 743 618 3;
#X obj 648 492 bng 15 250 50 0 empty empty empty 17 7 0 10 -262144
-1 -1;
#X obj 629 854 FMclarinete~;
#X obj 628 894 output~;
#X obj 465 610 t b f;
#X msg 584 537 100;
#X msg 669 576 600;
#X obj 400 738 line~;
#X obj 393 686 pack 0 0;
#X msg 783 773 1;
#X obj 1015 519 FMorgao~;
#X obj 1321 704 FMmetal~;
#X obj 1180 522 FMfagote~;
#X obj 1002 413 ASR~;
#X msg 1017 244 0.7;
#X msg 1116 283 300;
#X msg 1132 321 3;
#X obj 1037 195 bng 15 250 50 0 empty empty empty 17 7 0 10 -262144
-1 -1;
#X msg 973 240 100;
#X obj 1275 375 ASR~;
#X msg 1290 206 0.7;
#X msg 1389 245 300;
#X msg 1405 283 3;
#X obj 1310 157 bng 15 250 50 0 empty empty empty 17 7 0 10 -262144
-1 -1;
#X msg 1246 202 100;
#X msg 1331 241 600;
#X obj 899 250 bng 15 250 50 0 empty empty empty 17 7 0 10 -262144
-1 -1;
#X obj 1202 233 bng 15 250 50 0 empty empty empty 17 7 0 10 -262144
-1 -1;
#X msg 1084 449 1;
#X msg 1303 463 1;
#X obj 1136 856 output~;
#X msg 1058 279 2000;
#X msg 1239 470 700;
#X msg 1031 450 1000;
#X obj 1342 626 ADSRlinear~;
#X msg 1374 667 200;
#X msg 1418 668 1;
#X msg 1285 549 1;
#X msg 1395 551 200;
#X msg 1472 552 1000;
#X obj 1243 565 bng 15 250 50 0 empty empty empty 17 7 0 10 -262144
-1 -1;
#X obj 1394 477 bng 15 250 50 0 empty empty empty 17 7 0 10 -262144
-1 -1;
#X msg 1321 553 300;
#X msg 1353 548 0.8;
#X msg 1428 550 4000;
#X connect 3 0 4 0;
#X connect 4 0 5 0;
#X connect 4 1 11 0;
#X connect 4 2 17 0;
#X connect 4 3 23 0;
#X connect 4 4 24 0;
#X connect 4 5 25 0;
#X connect 4 6 26 0;
#X connect 5 0 6 0;
#X connect 5 1 7 0;
#X connect 6 0 35 0;
#X connect 11 0 12 0;
#X connect 11 1 13 0;
#X connect 17 0 18 0;
#X connect 17 1 19 0;
#X connect 31 0 3 0;
#X connect 32 0 33 0;
#X connect 33 0 34 0;
#X connect 35 0 36 0;
#X connect 35 0 46 0;
#X connect 37 0 3 0;
#X connect 38 0 3 0;
#X connect 39 0 44 0;
#X connect 40 0 39 2;
#X connect 41 0 39 4;
#X connect 42 0 39 5;
#X connect 43 0 47 0;
#X connect 43 0 40 0;
#X connect 43 0 48 0;
#X connect 43 0 41 0;
#X connect 43 0 42 0;
#X connect 43 0 51 0;
#X connect 44 0 45 0;
#X connect 44 0 45 1;
#X connect 46 0 39 0;
#X connect 46 1 50 0;
#X connect 47 0 39 1;
#X connect 48 0 39 3;
#X connect 49 0 44 1;
#X connect 50 0 49 0;
#X connect 51 0 44 2;
#X connect 52 0 72 0;
#X connect 52 0 72 1;
#X connect 53 0 72 1;
#X connect 53 0 72 0;
#X connect 54 0 72 1;
#X connect 54 0 72 0;
#X connect 55 0 52 0;
#X connect 56 0 55 2;
#X connect 57 0 55 4;
#X connect 58 0 55 5;
#X connect 59 0 60 0;
#X connect 59 0 56 0;
#X connect 59 0 73 0;
#X connect 59 0 57 0;
#X connect 59 0 58 0;
#X connect 60 0 55 1;
#X connect 61 0 54 0;
#X connect 62 0 61 2;
#X connect 63 0 61 4;
#X connect 64 0 61 5;
#X connect 65 0 66 0;
#X connect 65 0 62 0;
#X connect 65 0 67 0;
#X connect 65 0 63 0;
#X connect 65 0 64 0;
#X connect 66 0 61 1;
#X connect 67 0 61 3;
#X connect 68 0 55 0;
#X connect 69 0 61 0;
#X connect 70 0 52 2;
#X connect 71 0 54 2;
#X connect 73 0 55 3;
#X connect 74 0 54 1;
#X connect 75 0 52 1;
#X connect 76 0 53 0;
#X connect 77 0 53 1;
#X connect 78 0 53 2;
#X connect 79 0 76 1;
#X connect 80 0 76 4;
#X connect 81 0 76 6;
#X connect 82 0 76 0;
#X connect 83 0 79 0;
#X connect 83 0 84 0;
#X connect 83 0 85 0;
#X connect 83 0 80 0;
#X connect 83 0 86 0;
#X connect 83 0 81 0;
#X connect 84 0 76 2;
#X connect 85 0 76 3;
#X connect 86 0 76 5;
