#N canvas 104 202 450 300 10;
#X obj 28 10 inlet~;
#X obj 170 10 inlet;
#X obj 27 221 *~;
#X obj 126 216 *~;
#X obj 27 245 outlet~;
#X obj 125 244 outlet~;
#X text 209 10 sinal de controle entre 0 e 1;
#X text 278 78 0 -> hard left;
#X text 280 102 1 -> hard right;
#X obj 83 66 expr 1 - $f1;
#X connect 0 0 2 0;
#X connect 0 0 3 0;
#X connect 1 0 3 1;
#X connect 1 0 9 0;
#X connect 2 0 4 0;
#X connect 3 0 5 0;
#X connect 9 0 2 1;
