#N canvas 0 47 1366 702 10;
#N canvas 140 51 1742 801 drums 0;
#X obj 97 439 FMblocodemadeira~;
#X obj 97 386 Rexponencial~;
#X obj 610 458 FMtambor~;
#X obj 645 296 bng 15 250 50 0 empty empty empty 17 7 0 10 -262144
-1 -1;
#X msg 620 341 0.7;
#X msg 690 340 1;
#X msg 764 339 1;
#X msg 172 357 5;
#X msg 134 358 100;
#X msg 196 400 12000;
#X obj 969 77 midiparse;
#X obj 969 107 unpack f f;
#X floatatom 969 137 5 0 0 0 - - -, f 5;
#X floatatom 1034 137 5 0 0 0 - - -, f 5;
#X text 968 153 pitch;
#X text 1033 154 velocity;
#X obj 70 216 bng 15 250 50 0 empty empty empty 17 7 0 10 -262144 -1
-1;
#X obj 996 306 Rexponencial~;
#X obj 995 357 FMblocodemadeira~;
#X obj 969 170 bng 15 250 50 0 empty empty empty 17 7 0 10 -262144
-1 -1;
#X msg 1071 277 1;
#X msg 1094 314 100;
#X msg 1033 277 50;
#X obj 583 71 midiparse;
#X obj 583 101 unpack f f;
#X floatatom 583 131 5 0 0 0 - - -, f 5;
#X floatatom 648 131 5 0 0 0 - - -, f 5;
#X text 582 147 pitch;
#X text 647 148 velocity;
#X obj 70 38 seq;
#X obj 70 68 midiparse;
#X obj 70 98 unpack f f;
#X floatatom 70 128 5 0 0 0 - - -, f 5;
#X floatatom 135 128 5 0 0 0 - - -, f 5;
#X text 69 144 pitch;
#X text 134 145 velocity;
#X obj 17 -19 bng 15 250 50 0 empty empty empty 17 7 0 10 -262144 -1
-1;
#X msg 138 -23 stop;
#X obj 583 174 bng 15 250 50 0 empty empty empty 17 7 0 10 -262144
-1 -1;
#X msg 201 -21 read hihat.mid;
#X obj 70 284 sel 0;
#X obj 70 251 f;
#X obj 97 321 bng 15 250 50 0 empty empty empty 17 7 0 10 -262144 -1
-1;
#X obj 583 201 f;
#X obj 583 231 sel 0;
#X obj 610 271 bng 15 250 50 0 empty empty empty 17 7 0 10 -262144
-1 -1;
#X obj 645 251 loadbang;
#X obj 196 325 loadbang;
#X obj 1094 248 loadbang;
#X obj 201 -43 loadbang;
#X msg 77 -20 pause;
#X obj 17 -43 r PLAY;
#X obj 77 -44 r PAUSE;
#X obj 138 -42 r STOP;
#X obj 583 38 seq;
#X obj 523 -19 bng 15 250 50 0 empty empty empty 17 7 0 10 -262144
-1 -1;
#X msg 644 -23 stop;
#X obj 707 -43 loadbang;
#X msg 583 -20 pause;
#X obj 523 -43 r PLAY;
#X obj 583 -44 r PAUSE;
#X obj 644 -42 r STOP;
#X msg 707 -21 read kick.mid;
#X obj 969 51 seq;
#X obj 909 -6 bng 15 250 50 0 empty empty empty 17 7 0 10 -262144 -1
-1;
#X msg 1030 -10 stop;
#X obj 1093 -30 loadbang;
#X msg 969 -7 pause;
#X obj 909 -30 r PLAY;
#X obj 969 -31 r PAUSE;
#X obj 1030 -29 r STOP;
#X msg 1093 -8 read snare.mid;
#X obj 969 199 f;
#X obj 969 229 sel 0;
#X obj 996 259 bng 15 250 50 0 empty empty empty 17 7 0 10 -262144
-1 -1;
#X obj 645 273 uzi 2;
#X msg 655 340 20;
#X msg 724 340 500;
#X msg 749 399 20;
#X obj 1347 397 Rexponencial~;
#X obj 1347 344 bng 15 250 50 0 empty empty empty 17 7 0 10 -262144
-1 -1;
#X obj 1348 487 FMsino~;
#X obj 1386 466 line~;
#X msg 1502 401 100 30000;
#X obj 1320 207 bng 15 250 50 0 empty empty empty 17 7 0 10 -262144
-1 -1;
#X obj 1320 49 seq;
#X obj 1320 99 midiparse;
#X obj 1320 129 unpack f f;
#X floatatom 1320 159 5 0 0 0 - - -, f 5;
#X floatatom 1385 159 5 0 0 0 - - -, f 5;
#X text 1319 175 pitch;
#X text 1384 176 velocity;
#X obj 1265 22 bng 15 250 50 0 empty empty empty 17 7 0 10 -262144
-1 -1;
#X msg 1388 -12 stop;
#X obj 1320 275 sel 0;
#X obj 1320 242 f;
#X obj 1451 -32 loadbang;
#X msg 1327 -9 pause;
#X obj 1265 -32 r PLAY;
#X obj 1327 -33 r PAUSE;
#X obj 1388 -31 r STOP;
#X obj 1398 301 loadbang;
#X msg 1451 -10 read ride.mid;
#X obj 1502 295 r PLAY;
#X obj 1502 326 delay 112000;
#X msg 1384 347 5000;
#X msg 1422 347 10;
#X msg 1458 347 1000;
#X obj 97 486 *~ 0.1;
#X obj 609 495 *~ 0.2;
#X obj 996 396 *~ 0.3;
#X obj 97 526 throw~ drums;
#X obj 609 532 throw~ drums;
#X obj 996 475 throw~ drums;
#X obj 1348 570 throw~ ride;
#X obj 610 394 ARtambor~;
#X text 91 207 Nao estamos interessados no pitch \,;
#X text 90 217 ja que ele nao muda ao longo da peca;
#X text 109 275 A cada nota \, checamos se a velocity nao e zero. Caso
nao seja \, a nota e tocada.;
#X text 48 569 Os comentarios desse instrumento valem para os ao lado.
;
#X text 49 591 Nesse subpatch estao representados os instrumentos que
compoe a bateria da 1a parte.;
#X text 74 632 Kick --> FMtambor~ + ARtambor~;
#X text 73 659 Hihat -> FMblocodemadeira~ + Rexponencial~;
#X text 73 645 Snare -> FMblocodemadeira~ + Rexponencial~;
#X text 73 673 Ride --> FMsino~ + Rexponencial~;
#X text 1388 257 Apos 112000ms \, o pitch desse instrumento comeca
a mudar. E o efeito percebido no fim da 1a parte;
#X connect 0 0 108 0;
#X connect 1 0 0 0;
#X connect 2 0 109 0;
#X connect 3 0 4 0;
#X connect 3 0 76 0;
#X connect 3 0 5 0;
#X connect 3 0 77 0;
#X connect 3 0 6 0;
#X connect 3 0 78 0;
#X connect 4 0 115 1;
#X connect 5 0 115 3;
#X connect 6 0 115 5;
#X connect 7 0 1 2;
#X connect 8 0 1 1;
#X connect 9 0 0 1;
#X connect 10 0 11 0;
#X connect 11 0 12 0;
#X connect 11 1 13 0;
#X connect 12 0 19 0;
#X connect 13 0 72 1;
#X connect 16 0 41 0;
#X connect 17 0 18 0;
#X connect 18 0 110 0;
#X connect 19 0 72 0;
#X connect 20 0 17 2;
#X connect 21 0 18 1;
#X connect 22 0 17 1;
#X connect 23 0 24 0;
#X connect 24 0 25 0;
#X connect 24 1 26 0;
#X connect 25 0 38 0;
#X connect 26 0 43 1;
#X connect 29 0 30 0;
#X connect 30 0 31 0;
#X connect 31 0 32 0;
#X connect 31 1 33 0;
#X connect 32 0 16 0;
#X connect 33 0 41 1;
#X connect 36 0 29 0;
#X connect 37 0 29 0;
#X connect 38 0 43 0;
#X connect 39 0 29 0;
#X connect 40 1 42 0;
#X connect 41 0 40 0;
#X connect 42 0 1 0;
#X connect 43 0 44 0;
#X connect 44 1 45 0;
#X connect 45 0 115 0;
#X connect 46 0 75 0;
#X connect 47 0 8 0;
#X connect 47 0 7 0;
#X connect 47 0 9 0;
#X connect 48 0 22 0;
#X connect 48 0 20 0;
#X connect 48 0 21 0;
#X connect 49 0 39 0;
#X connect 50 0 29 0;
#X connect 51 0 36 0;
#X connect 52 0 50 0;
#X connect 53 0 37 0;
#X connect 54 0 23 0;
#X connect 55 0 54 0;
#X connect 56 0 54 0;
#X connect 57 0 62 0;
#X connect 58 0 54 0;
#X connect 59 0 55 0;
#X connect 60 0 58 0;
#X connect 61 0 56 0;
#X connect 62 0 54 0;
#X connect 63 0 10 0;
#X connect 64 0 63 0;
#X connect 65 0 63 0;
#X connect 66 0 71 0;
#X connect 67 0 63 0;
#X connect 68 0 64 0;
#X connect 69 0 67 0;
#X connect 70 0 65 0;
#X connect 71 0 63 0;
#X connect 72 0 73 0;
#X connect 73 1 74 0;
#X connect 74 0 17 0;
#X connect 75 0 3 0;
#X connect 76 0 115 2;
#X connect 77 0 115 4;
#X connect 78 0 2 1;
#X connect 79 0 81 0;
#X connect 80 0 79 0;
#X connect 81 0 114 0;
#X connect 82 0 81 1;
#X connect 83 0 82 0;
#X connect 84 0 95 0;
#X connect 85 0 86 0;
#X connect 86 0 87 0;
#X connect 87 0 88 0;
#X connect 87 1 89 0;
#X connect 88 0 84 0;
#X connect 89 0 95 1;
#X connect 92 0 85 0;
#X connect 93 0 85 0;
#X connect 94 1 80 0;
#X connect 95 0 94 0;
#X connect 96 0 102 0;
#X connect 97 0 85 0;
#X connect 98 0 92 0;
#X connect 99 0 97 0;
#X connect 100 0 93 0;
#X connect 101 0 106 0;
#X connect 101 0 105 0;
#X connect 102 0 85 0;
#X connect 103 0 104 0;
#X connect 103 0 107 0;
#X connect 104 0 83 0;
#X connect 105 0 79 1;
#X connect 106 0 79 2;
#X connect 107 0 82 0;
#X connect 108 0 111 0;
#X connect 109 0 112 0;
#X connect 110 0 113 0;
#X connect 115 0 2 0;
#X restore 636 40 pd drums;
#N canvas 410 58 571 770 baixo 0;
#X obj 201 505 FMmetal~;
#X msg 223 478 200;
#X msg 194 350 1;
#X msg 304 352 200;
#X msg 381 353 1000;
#X obj 283 318 bng 15 250 50 0 empty empty empty 17 7 0 10 -262144
-1 -1;
#X msg 230 354 300;
#X obj 286 283 loadbang;
#X obj 80 48 seq;
#X obj 80 78 midiparse;
#X obj 80 108 unpack f f;
#X floatatom 80 138 5 0 0 0 - - -, f 5;
#X floatatom 145 138 5 0 0 0 - - -, f 5;
#X text 79 154 pitch;
#X text 144 155 velocity;
#X obj 27 -9 bng 15 250 50 0 empty empty empty 17 7 0 10 -262144 -1
-1;
#X msg 148 -13 stop;
#X obj 80 296 sel 0;
#X obj 80 243 f;
#X obj 211 -33 loadbang;
#X msg 87 -10 pause;
#X obj 27 -33 r PLAY;
#X obj 87 -34 r PAUSE;
#X obj 148 -32 r STOP;
#X obj 107 417 mtof;
#X obj 80 193 t b f;
#X obj 115 352 bng 15 250 50 0 empty empty empty 17 7 0 10 -262144
-1 -1;
#X msg 211 -10 read baixo.mid;
#X obj 385 529 FMmetal~;
#X obj 351 475 / 2;
#X msg 262 349 0.8;
#X msg 267 479 0.5;
#X msg 420 450 0.5;
#X msg 337 351 5000;
#X obj 200 545 *~ 0.3;
#X floatatom 71 512 5 0 0 0 - - -, f 5;
#X obj 201 620 throw~ baixo;
#X obj 201 427 ADSRlinear~;
#X obj 394 396 loadbang;
#X text 126 205 Ao receber um pitch novo \, ele e enviado ao instrumento
e \, se velocity == 0 \, o envelope recebe um bang para tocar a nota.
;
#X text 114 662 O baixo e composto por dois FMmetal~ + ADSRlinear~
\, um uma oitava abaixo do outro.;
#X connect 0 0 34 0;
#X connect 1 0 0 1;
#X connect 2 0 37 1;
#X connect 3 0 37 4;
#X connect 4 0 37 6;
#X connect 5 0 2 0;
#X connect 5 0 6 0;
#X connect 5 0 30 0;
#X connect 5 0 3 0;
#X connect 5 0 33 0;
#X connect 5 0 4 0;
#X connect 6 0 37 2;
#X connect 7 0 5 0;
#X connect 8 0 9 0;
#X connect 9 0 10 0;
#X connect 10 0 11 0;
#X connect 10 1 12 0;
#X connect 11 0 25 0;
#X connect 12 0 18 1;
#X connect 15 0 8 0;
#X connect 16 0 8 0;
#X connect 17 1 26 0;
#X connect 18 0 17 0;
#X connect 19 0 27 0;
#X connect 20 0 8 0;
#X connect 21 0 15 0;
#X connect 22 0 20 0;
#X connect 23 0 16 0;
#X connect 24 0 0 1;
#X connect 24 0 29 0;
#X connect 24 0 35 0;
#X connect 25 0 18 0;
#X connect 25 1 24 0;
#X connect 26 0 37 0;
#X connect 27 0 8 0;
#X connect 28 0 36 0;
#X connect 29 0 28 1;
#X connect 30 0 37 3;
#X connect 31 0 0 2;
#X connect 32 0 28 2;
#X connect 33 0 37 5;
#X connect 34 0 36 0;
#X connect 37 0 0 0;
#X connect 37 0 28 0;
#X connect 38 0 32 0;
#X connect 38 0 31 0;
#X connect 38 0 1 0;
#X restore 690 40 pd baixo;
#X obj 668 104 bng 15 250 50 0 empty empty empty 17 7 0 10 -262144
-1 -1;
#X obj 906 103 bng 15 250 50 0 empty empty empty 17 7 0 10 -262144
-1 -1;
#X obj 1183 103 bng 15 250 50 0 empty empty empty 17 7 0 10 -262144
-1 -1;
#X obj 668 126 s PLAY;
#X obj 906 124 s PAUSE;
#X obj 1183 124 s STOP;
#N canvas 13 50 1492 795 acordes 0;
#X obj 291 286 bng 15 250 50 0 empty empty empty 17 7 0 10 -262144
-1 -1;
#X obj 291 251 loadbang;
#X obj 100 68 seq;
#X obj 100 98 midiparse;
#X obj 100 128 unpack f f;
#X floatatom 100 158 5 0 0 0 - - -, f 5;
#X floatatom 165 158 5 0 0 0 - - -, f 5;
#X text 99 174 pitch;
#X text 164 175 velocity;
#X obj 47 11 bng 15 250 50 0 empty empty empty 17 7 0 10 -262144 -1
-1;
#X msg 168 7 stop;
#X obj 102 248 f;
#X obj 231 -13 loadbang;
#X msg 107 10 pause;
#X obj 47 -13 r PLAY;
#X obj 107 -14 r PAUSE;
#X obj 168 -12 r STOP;
#X obj 156 431 mtof;
#X obj 129 329 bng 15 250 50 0 empty empty empty 17 7 0 10 -262144
-1 -1;
#X obj 255 435 ASR~;
#X msg 234 362 1;
#X msg 278 506 500;
#X obj 156 403 f;
#X obj 102 198 t b f;
#X obj 129 363 t b b;
#X msg 341 359 1;
#X obj 636 285 bng 15 250 50 0 empty empty empty 17 7 0 10 -262144
-1 -1;
#X obj 632 250 loadbang;
#X obj 437 67 seq;
#X obj 437 97 midiparse;
#X obj 437 127 unpack f f;
#X floatatom 437 157 5 0 0 0 - - -, f 5;
#X floatatom 502 157 5 0 0 0 - - -, f 5;
#X text 436 173 pitch;
#X text 501 174 velocity;
#X obj 384 10 bng 15 250 50 0 empty empty empty 17 7 0 10 -262144 -1
-1;
#X msg 505 6 stop;
#X obj 438 247 f;
#X obj 568 -14 loadbang;
#X msg 444 9 pause;
#X obj 384 -14 r PLAY;
#X obj 444 -15 r PAUSE;
#X obj 505 -13 r STOP;
#X obj 514 440 mtof;
#X obj 465 328 bng 15 250 50 0 empty empty empty 17 7 0 10 -262144
-1 -1;
#X obj 601 434 ASR~;
#X msg 580 361 1;
#X msg 624 515 500;
#X obj 514 392 f;
#X obj 438 197 t b f;
#X obj 487 362 t b b;
#X msg 687 358 1;
#X obj 971 274 bng 15 250 50 0 empty empty empty 17 7 0 10 -262144
-1 -1;
#X obj 974 239 loadbang;
#X obj 786 66 seq;
#X obj 786 96 midiparse;
#X obj 786 126 unpack f f;
#X floatatom 786 156 5 0 0 0 - - -, f 5;
#X floatatom 851 156 5 0 0 0 - - -, f 5;
#X text 785 172 pitch;
#X text 850 173 velocity;
#X obj 733 9 bng 15 250 50 0 empty empty empty 17 7 0 10 -262144 -1
-1;
#X msg 854 5 stop;
#X obj 788 226 f;
#X obj 917 -15 loadbang;
#X msg 793 8 pause;
#X obj 733 -15 r PLAY;
#X obj 793 -16 r PAUSE;
#X obj 854 -14 r STOP;
#X obj 842 429 mtof;
#X obj 815 307 bng 15 250 50 0 empty empty empty 17 7 0 10 -262144
-1 -1;
#X obj 919 423 ASR~;
#X msg 898 350 1;
#X msg 927 504 500;
#X obj 842 381 f;
#X obj 788 196 t b f;
#X obj 815 351 t b b;
#X msg 1005 347 1;
#X obj 1310 301 bng 15 250 50 0 empty empty empty 17 7 0 10 -262144
-1 -1;
#X obj 1313 266 loadbang;
#X obj 1119 73 seq;
#X obj 1119 113 midiparse;
#X obj 1119 143 unpack f f;
#X floatatom 1119 173 5 0 0 0 - - -, f 5;
#X floatatom 1184 173 5 0 0 0 - - -, f 5;
#X text 1118 189 pitch;
#X text 1183 190 velocity;
#X obj 1066 16 bng 15 250 50 0 empty empty empty 17 7 0 10 -262144
-1 -1;
#X msg 1187 12 stop;
#X obj 1120 263 f;
#X obj 1250 -8 loadbang;
#X msg 1126 15 pause;
#X obj 1066 -8 r PLAY;
#X obj 1126 -9 r PAUSE;
#X obj 1187 -7 r STOP;
#X obj 1174 456 mtof;
#X obj 1147 344 bng 15 250 50 0 empty empty empty 17 7 0 10 -262144
-1 -1;
#X obj 1258 450 ASR~;
#X msg 1237 377 1;
#X msg 1268 521 500;
#X obj 1174 408 f;
#X obj 1120 213 t b f;
#X obj 1147 378 t b b;
#X msg 1344 374 1;
#X msg 231 10 read root.mid;
#X msg 568 9 read middle.mid;
#X msg 917 8 read upper1.mid;
#X msg 1250 15 read upper2.mid;
#X msg 986 501 0;
#X msg 653 515 0;
#X msg 310 505 0;
#X msg 1324 524 0;
#X msg 198 358 200;
#X msg 266 357 1000;
#X msg 308 360 1000;
#X msg 544 357 200;
#X msg 612 356 1000;
#X msg 655 359 1000;
#X msg 862 346 200;
#X msg 930 345 1000;
#X msg 972 348 1000;
#X msg 1201 373 200;
#X msg 1269 372 1000;
#X msg 1311 375 1000;
#X obj 1120 304 sel 0;
#X obj 102 289 sel 0;
#X obj 438 288 sel 0;
#X obj 788 267 sel 0;
#X obj 256 552 FMorgao~;
#X obj 602 551 FMorgao~;
#X obj 902 539 FMfagote~;
#X obj 1243 568 FMfagote~;
#X obj 256 637 throw~ acordes;
#X obj 601 641 throw~ acordes;
#X obj 903 642 throw~ acordes;
#X obj 1244 628 throw~ acordes;
#X obj 289 472 loadbang;
#X obj 624 480 loadbang;
#X obj 931 471 loadbang;
#X obj 1268 489 loadbang;
#X text 265 687 Acordes: 2 FMorgao~ e 2 FMfagote~ + ASR~;
#X connect 0 0 112 0;
#X connect 0 0 20 0;
#X connect 0 0 113 0;
#X connect 0 0 114 0;
#X connect 0 0 25 0;
#X connect 1 0 0 0;
#X connect 2 0 3 0;
#X connect 3 0 4 0;
#X connect 4 0 5 0;
#X connect 4 1 6 0;
#X connect 5 0 23 0;
#X connect 6 0 11 1;
#X connect 9 0 2 0;
#X connect 10 0 2 0;
#X connect 11 0 125 0;
#X connect 12 0 104 0;
#X connect 13 0 2 0;
#X connect 14 0 9 0;
#X connect 15 0 13 0;
#X connect 16 0 10 0;
#X connect 17 0 128 1;
#X connect 18 0 24 0;
#X connect 19 0 128 0;
#X connect 20 0 19 2;
#X connect 21 0 128 1;
#X connect 22 0 17 0;
#X connect 23 0 11 0;
#X connect 23 1 22 1;
#X connect 24 0 19 0;
#X connect 24 1 22 0;
#X connect 25 0 19 5;
#X connect 26 0 115 0;
#X connect 26 0 46 0;
#X connect 26 0 116 0;
#X connect 26 0 117 0;
#X connect 26 0 51 0;
#X connect 27 0 26 0;
#X connect 28 0 29 0;
#X connect 29 0 30 0;
#X connect 30 0 31 0;
#X connect 30 1 32 0;
#X connect 31 0 49 0;
#X connect 32 0 37 1;
#X connect 35 0 28 0;
#X connect 36 0 28 0;
#X connect 37 0 126 0;
#X connect 38 0 105 0;
#X connect 39 0 28 0;
#X connect 40 0 35 0;
#X connect 41 0 39 0;
#X connect 42 0 36 0;
#X connect 43 0 129 1;
#X connect 44 0 50 0;
#X connect 45 0 129 0;
#X connect 46 0 45 2;
#X connect 47 0 129 1;
#X connect 48 0 43 0;
#X connect 49 0 37 0;
#X connect 49 1 48 1;
#X connect 50 0 45 0;
#X connect 50 1 48 0;
#X connect 51 0 45 5;
#X connect 52 0 118 0;
#X connect 52 0 72 0;
#X connect 52 0 119 0;
#X connect 52 0 120 0;
#X connect 52 0 77 0;
#X connect 53 0 52 0;
#X connect 54 0 55 0;
#X connect 55 0 56 0;
#X connect 56 0 57 0;
#X connect 56 1 58 0;
#X connect 57 0 75 0;
#X connect 58 0 63 1;
#X connect 61 0 54 0;
#X connect 62 0 54 0;
#X connect 63 0 127 0;
#X connect 64 0 106 0;
#X connect 65 0 54 0;
#X connect 66 0 61 0;
#X connect 67 0 65 0;
#X connect 68 0 62 0;
#X connect 69 0 130 1;
#X connect 70 0 76 0;
#X connect 71 0 130 0;
#X connect 72 0 71 2;
#X connect 73 0 130 1;
#X connect 74 0 69 0;
#X connect 75 0 63 0;
#X connect 75 1 74 1;
#X connect 76 0 71 0;
#X connect 76 1 74 0;
#X connect 77 0 71 5;
#X connect 78 0 121 0;
#X connect 78 0 98 0;
#X connect 78 0 122 0;
#X connect 78 0 123 0;
#X connect 78 0 103 0;
#X connect 79 0 78 0;
#X connect 80 0 81 0;
#X connect 81 0 82 0;
#X connect 82 0 83 0;
#X connect 82 1 84 0;
#X connect 83 0 101 0;
#X connect 84 0 89 1;
#X connect 87 0 80 0;
#X connect 88 0 80 0;
#X connect 89 0 124 0;
#X connect 90 0 107 0;
#X connect 91 0 80 0;
#X connect 92 0 87 0;
#X connect 93 0 91 0;
#X connect 94 0 88 0;
#X connect 95 0 131 1;
#X connect 96 0 102 0;
#X connect 97 0 131 0;
#X connect 98 0 97 2;
#X connect 99 0 131 1;
#X connect 100 0 95 0;
#X connect 101 0 89 0;
#X connect 101 1 100 1;
#X connect 102 0 97 0;
#X connect 102 1 100 0;
#X connect 103 0 97 5;
#X connect 104 0 2 0;
#X connect 105 0 28 0;
#X connect 106 0 54 0;
#X connect 107 0 80 0;
#X connect 108 0 130 2;
#X connect 109 0 129 2;
#X connect 110 0 128 2;
#X connect 111 0 131 2;
#X connect 112 0 19 1;
#X connect 113 0 19 3;
#X connect 114 0 19 4;
#X connect 115 0 45 1;
#X connect 116 0 45 3;
#X connect 117 0 45 4;
#X connect 118 0 71 1;
#X connect 119 0 71 3;
#X connect 120 0 71 4;
#X connect 121 0 97 1;
#X connect 122 0 97 3;
#X connect 123 0 97 4;
#X connect 124 1 96 0;
#X connect 125 1 18 0;
#X connect 126 1 44 0;
#X connect 127 1 70 0;
#X connect 128 0 132 0;
#X connect 129 0 133 0;
#X connect 130 0 134 0;
#X connect 131 0 135 0;
#X connect 136 0 21 0;
#X connect 136 0 110 0;
#X connect 137 0 109 0;
#X connect 137 0 47 0;
#X connect 138 0 73 0;
#X connect 138 0 108 0;
#X connect 139 0 111 0;
#X connect 139 0 99 0;
#X restore 840 40 pd acordes;
#N canvas 289 50 730 768 vozprincipal 0;
#X obj 90 58 seq;
#X obj 90 88 midiparse;
#X obj 90 118 unpack f f;
#X floatatom 90 148 5 0 0 0 - - -, f 5;
#X floatatom 155 148 5 0 0 0 - - -, f 5;
#X text 89 164 pitch;
#X text 154 165 velocity;
#X obj 37 1 bng 15 250 50 0 empty empty empty 17 7 0 10 -262144 -1
-1;
#X msg 158 -3 stop;
#X obj 91 238 f;
#X obj 221 -23 loadbang;
#X msg 97 0 pause;
#X obj 37 -23 r PLAY;
#X obj 97 -24 r PAUSE;
#X obj 158 -22 r STOP;
#X obj 116 431 mtof;
#X obj 91 319 bng 15 250 50 0 empty empty empty 17 7 0 10 -262144 -1
-1;
#X msg 221 0 read vozprincipal.mid;
#X obj 116 403 f;
#X obj 91 188 t b f;
#X obj 163 334 t b b;
#X obj 91 279 sel 98;
#X obj 275 674 throw~ vozprincipal;
#X obj 271 541 FMmetal~;
#X msg 347 459 200;
#X msg 261 313 1;
#X obj 337 236 bng 15 250 50 0 empty empty empty 17 7 0 10 -262144
-1 -1;
#X obj 340 201 loadbang;
#X msg 326 307 0.8;
#X msg 391 460 0.5;
#X obj 348 541 FMclarinete~;
#X msg 423 460 1;
#X obj 202 452 / 4;
#X msg 486 311 1000;
#X msg 294 312 200;
#X msg 378 310 50;
#X obj 556 599 line~;
#X obj 566 496 r PLAY;
#X msg 556 561 1 0;
#X obj 274 617 *~;
#X msg 421 312 200;
#X obj 285 385 ADSRlinear~;
#X obj 168 524 line~;
#X msg 195 490 50;
#X obj 609 526 del 92000;
#X msg 613 562 0 13000;
#X obj 419 394 loadbang;
#X text 19 524 Esse line~ insere uma;
#X text 18 536 rampa entre cada troca;
#X text 18 548 de nota \, criando um efeito;
#X text 18 560 de glissando em uma das oitavas.;
#X text 20 595 Voz principal:;
#X text 18 616 FMmetal~ + ADSRlinear~ duas oitavas;
#X text 17 629 acima de FMclarinete~ + ADSRlinear~;
#X text 565 475 Fade out apos 92000ms;
#X connect 0 0 1 0;
#X connect 1 0 2 0;
#X connect 2 0 3 0;
#X connect 2 1 4 0;
#X connect 3 0 19 0;
#X connect 4 0 9 1;
#X connect 7 0 0 0;
#X connect 8 0 0 0;
#X connect 9 0 21 0;
#X connect 10 0 17 0;
#X connect 11 0 0 0;
#X connect 12 0 7 0;
#X connect 13 0 11 0;
#X connect 14 0 8 0;
#X connect 15 0 32 0;
#X connect 15 0 42 0;
#X connect 16 0 20 0;
#X connect 16 0 43 0;
#X connect 17 0 0 0;
#X connect 18 0 15 0;
#X connect 19 0 9 0;
#X connect 19 1 18 1;
#X connect 20 0 41 0;
#X connect 20 1 18 0;
#X connect 21 0 16 0;
#X connect 23 0 39 0;
#X connect 24 0 23 1;
#X connect 25 0 41 1;
#X connect 26 0 25 0;
#X connect 26 0 34 0;
#X connect 26 0 28 0;
#X connect 26 0 35 0;
#X connect 26 0 40 0;
#X connect 26 0 33 0;
#X connect 27 0 26 0;
#X connect 28 0 41 3;
#X connect 29 0 23 2;
#X connect 30 0 39 0;
#X connect 31 0 30 2;
#X connect 32 0 30 1;
#X connect 33 0 41 6;
#X connect 34 0 41 2;
#X connect 35 0 41 4;
#X connect 36 0 39 1;
#X connect 37 0 38 0;
#X connect 37 0 44 0;
#X connect 38 0 36 0;
#X connect 39 0 22 0;
#X connect 40 0 41 5;
#X connect 41 0 23 0;
#X connect 41 0 30 0;
#X connect 42 0 23 1;
#X connect 43 0 42 1;
#X connect 44 0 45 0;
#X connect 45 0 36 0;
#X connect 46 0 31 0;
#X connect 46 0 29 0;
#X connect 46 0 24 0;
#X restore 744 40 pd vozprincipal;
#X obj 96 526 hsl 128 15 0 1 0 0 empty empty empty -2 -8 0 10 -262144
-1 -1 6350 1;
#X obj 54 565 panning;
#X obj 93 476 loadbang;
#X msg 93 500 0.5;
#X obj 54 596 throw~ L;
#X obj 110 596 throw~ R;
#X obj 616 703 catch~ L;
#X obj 674 703 catch~ R;
#X obj 305 526 hsl 128 15 0 1 0 0 empty empty empty -2 -8 0 10 -262144
-1 -1 10160 1;
#X obj 250 566 panning;
#X obj 302 477 loadbang;
#X obj 250 597 throw~ L;
#X obj 306 597 throw~ R;
#X obj 250 383 catch~ ride;
#X obj 505 526 hsl 128 15 0 1 0 0 empty empty empty -2 -8 0 10 -262144
-1 -1 6350 1;
#X obj 453 566 panning;
#X obj 502 477 loadbang;
#X msg 502 501 0.5;
#X obj 453 597 throw~ L;
#X obj 509 597 throw~ R;
#X obj 453 477 *~ 0.15;
#X obj 453 383 catch~ baixo;
#X obj 719 528 hsl 128 15 0 1 0 0 empty empty empty -2 -8 0 10 -262144
-1 -1 3175 1;
#X obj 670 568 panning;
#X obj 716 479 loadbang;
#X obj 670 599 throw~ L;
#X obj 726 599 throw~ R;
#X obj 935 529 hsl 128 15 0 1 0 0 empty empty empty -2 -8 0 10 -262144
-1 -1 9525 1;
#X obj 885 569 panning;
#X obj 932 480 loadbang;
#X obj 885 600 throw~ L;
#X obj 941 600 throw~ R;
#X obj 670 385 catch~ acordes;
#X obj 885 386 catch~ voz2;
#X obj 1160 529 hsl 128 15 0 1 0 0 empty empty empty -2 -8 0 10 -262144
-1 -1 6350 1;
#X obj 1112 569 panning;
#X obj 1157 480 loadbang;
#X msg 1157 504 0.5;
#X obj 1112 600 throw~ L;
#X obj 1168 600 throw~ R;
#X obj 1112 386 catch~ vozprincipal;
#X obj 54 382 catch~ drums;
#X obj 670 479 *~ 0.1;
#X floatatom 974 567 5 0 0 0 - - -, f 5;
#X obj 54 476 *~ 2;
#X obj 250 477 *~ 0.02;
#X msg 716 503 0.25;
#X msg 932 504 0.75;
#N canvas 0 50 1169 810 voz2 0;
#X obj 281 851 FMtresportadoras~;
#X obj 220 716 bng 15 250 50 0 empty empty empty 17 7 0 10 -262144
-1 -1;
#X obj 220 691 loadbang;
#X obj 109 98 seq;
#X obj 109 138 midiparse;
#X obj 109 168 unpack f f;
#X floatatom 109 198 5 0 0 0 - - -, f 5;
#X floatatom 166 198 5 0 0 0 - - -, f 5;
#X text 108 214 pitch;
#X text 165 215 velocity;
#X obj 56 41 bng 15 250 50 0 empty empty empty 17 7 0 10 -262144 -1
-1;
#X msg 177 37 stop;
#X obj 240 17 loadbang;
#X msg 116 40 pause;
#X obj 56 17 r PLAY;
#X obj 116 16 r PAUSE;
#X obj 177 18 r STOP;
#X obj 115 749 bng 15 250 50 0 empty empty empty 17 7 0 10 -262144
-1 -1;
#X msg 240 40 read baixo.mid;
#X obj 208 825 ASR~;
#X obj 166 243 sel 98;
#X msg 486 780 207.6;
#X msg 544 782 195.9;
#X msg 601 786 155.5;
#X obj 139 501 t b b b;
#X obj 203 501 t b b b;
#X obj 257 499 t b b b;
#X obj 440 689 unpack f f f;
#X msg 402 626 622.8 830.4 2491.2;
#X msg 539 626 311 933 2177;
#X msg 641 628 391.8 979.5 2154.9;
#X msg 666 787 1;
#X obj 438 870 r PLAY;
#X msg 438 923 0 0;
#X obj 476 901 del 80000;
#X msg 476 922 1 5000;
#X obj 438 952 line~;
#X obj 282 970 *~;
#X msg 161 748 100;
#X msg 197 752 1;
#X msg 229 747 5000;
#X msg 271 750 5000;
#X msg 304 749 1;
#X obj 166 282 counter;
#X obj 166 307 % 4;
#X floatatom 216 362 5 0 0 0 - - -, f 5;
#X obj 166 400 sel 0 1 2 3;
#X obj 227 213 r PLAY;
#X obj 223 242 del 82000;
#X obj 281 1039 throw~ voz2;
#X text 484 871 Fade in;
#X text 233 285 A cada nota tocada \, o contador avanca. Esse instrumento
esta baseado na partitura MIDI do baixo \, que toca uma nota por compasso.
As notas desse instrumento acontecem no mesmo momento que as do baixo
\, mas nao tem o mesmo pitch. Portanto \, o pitch que sai do midiparse
nao e utilizado.;
#X text 249 399 Ha uma nota para cada compasso;
#X text 772 607 Como esse instrumento se trata do FMtresportadoras
\, foram selecionadas 3 listas de formantes que correspondem a tres
vogais. A cada compasso \, as tres formantes sao mandadas para o FMtresportadoras~
;
#X obj 666 758 loadbang;
#X text 313 499 A cada compasso \, sao realizadas 3 acoes:;
#X text 554 499 1a: mandar o pitch da nota para o FMtresportadoras~
;
#X text 555 513 2a: mandar as 3 formantes correspondentes a uma vogal
e que fazem partes da serie harmonica do pitch em questao para o FMtresportadoras.
;
#X text 555 549 3a: mandar um bang para o envelope \, tocando a nota.
;
#X connect 0 0 37 0;
#X connect 1 0 38 0;
#X connect 1 0 39 0;
#X connect 1 0 40 0;
#X connect 1 0 41 0;
#X connect 1 0 42 0;
#X connect 2 0 1 0;
#X connect 3 0 4 0;
#X connect 4 0 5 0;
#X connect 5 0 6 0;
#X connect 5 1 7 0;
#X connect 7 0 20 0;
#X connect 10 0 3 0;
#X connect 11 0 3 0;
#X connect 12 0 18 0;
#X connect 13 0 3 0;
#X connect 14 0 10 0;
#X connect 15 0 13 0;
#X connect 16 0 11 0;
#X connect 17 0 19 0;
#X connect 18 0 3 0;
#X connect 19 0 0 0;
#X connect 20 0 43 0;
#X connect 21 0 0 4;
#X connect 22 0 0 4;
#X connect 23 0 0 4;
#X connect 24 0 17 0;
#X connect 24 1 28 0;
#X connect 24 2 21 0;
#X connect 25 0 17 0;
#X connect 25 1 30 0;
#X connect 25 2 22 0;
#X connect 26 0 17 0;
#X connect 26 1 29 0;
#X connect 26 2 23 0;
#X connect 27 0 0 1;
#X connect 27 1 0 2;
#X connect 27 2 0 3;
#X connect 28 0 27 0;
#X connect 29 0 27 0;
#X connect 30 0 27 0;
#X connect 31 0 0 5;
#X connect 32 0 33 0;
#X connect 32 0 34 0;
#X connect 33 0 36 0;
#X connect 34 0 35 0;
#X connect 35 0 36 0;
#X connect 36 0 37 1;
#X connect 37 0 49 0;
#X connect 38 0 19 1;
#X connect 39 0 19 2;
#X connect 40 0 19 3;
#X connect 41 0 19 4;
#X connect 42 0 19 5;
#X connect 43 0 44 0;
#X connect 44 0 45 0;
#X connect 44 0 46 0;
#X connect 46 0 24 0;
#X connect 46 1 25 0;
#X connect 46 2 25 0;
#X connect 46 3 26 0;
#X connect 47 0 48 0;
#X connect 48 0 43 2;
#X connect 54 0 31 0;
#X restore 906 40 pd voz2;
#X obj 885 479 *~ 0.4;
#X text 13 31 CompMus 2ยบ semestre - Trabalho Maior 2;
#X obj 605 200 s PLAY2;
#X obj 1442 160 timer;
#X floatatom 1442 256 10 0 0 0 - - -, f 10;
#X obj 1415 76 t b b;
#X obj 1415 46 r PLAY;
#X obj 1469 46 r STOP;
#X obj 1471 530 hsl 128 15 0 1 0 0 empty empty empty -2 -8 0 10 -262144
-1 -1 6350 1;
#X obj 1413 570 panning;
#X obj 1468 481 loadbang;
#X msg 1468 505 0.5;
#X obj 1413 601 throw~ L;
#X obj 1469 601 throw~ R;
#X obj 1659 532 hsl 128 15 0 1 0 0 empty empty empty -2 -8 0 10 -262144
-1 -1 12700 1;
#X obj 1601 572 panning;
#X obj 1656 483 loadbang;
#X obj 1601 603 throw~ L;
#X obj 1657 603 throw~ R;
#X obj 1872 533 hsl 128 15 0 1 0 0 empty empty empty -2 -8 0 10 -262144
-1 -1 0 1;
#X obj 1824 573 panning;
#X obj 1869 484 loadbang;
#X obj 1824 604 throw~ L;
#X obj 1880 604 throw~ R;
#X obj 1413 387 catch~ outrodrum;
#X obj 1601 389 catch~ outrobass;
#X obj 1824 390 catch~ outrosubass;
#X obj 2082 534 hsl 128 15 0 1 0 0 empty empty empty -2 -8 0 10 -262144
-1 -1 6985 1;
#X obj 2024 574 panning;
#X obj 2079 485 loadbang;
#X obj 2024 605 throw~ L;
#X obj 2080 605 throw~ R;
#X obj 2024 391 catch~ outrofrase;
#X msg 1869 508 0;
#X msg 1656 507 1;
#X obj 2271 533 hsl 128 15 0 1 0 0 empty empty empty -2 -8 0 10 -262144
-1 -1 3810 1;
#X obj 2223 573 panning;
#X obj 2268 484 loadbang;
#X obj 2223 604 throw~ L;
#X obj 2279 604 throw~ R;
#X obj 2223 390 catch~ outroacompanhamento;
#X obj 1112 480 *~ 0.1;
#X msg 1469 76 stop;
#X obj 2024 485 *~ 0.25;
#X obj 2223 484 *~ 0.3;
#X obj 1823 484 *~ 0.2;
#X obj 1602 483 *~ 0.25;
#X obj 1413 481 *~ 0.75;
#X msg 2268 508 0.3;
#X msg 2079 509 0.55;
#X msg 302 502 0.8;
#X text 14 16 Nicolas Figueiredo - nยบ USP 8038;
#X text 244 16 153;
#X text 55 626 <-----------------------------------------------------------
;
#X text 415 626 -----------------------------------------;
#X text 773 626 ------------------------------------------------------------
;
#X text 1133 626 ------------------------>;
#X text 1405 626 <-----------------------------------------------------------
;
#X text 2047 626 ----------------------------------------------------------->
;
#X obj 1469 125 metro 1000;
#X obj 1442 207 / 1000;
#X obj 616 744 output~;
#X text 233 364 FMsino~ + Rexponencial~;
#X text 432 365 FMmetal~ + ADSRlinear~;
#X text 648 365 FMorgao~ \, FMfagote~ + ASR~;
#X text 865 367 FMtresportadoras + ASR~;
#X text 1067 367 FMmetal~ \, FMclarinete~ + ADSRlinear~;
#X text 1339 354 FMsino~ \, FMblocodemadeira~ + Rexponencial~;
#X text 1400 369 FMtambor~ + ARtambor~;
#X text 1586 374 FMfagote~ + ADSRlinear~;
#X text 1813 374 FMtambor + ADSRlinear~;
#X text 1998 375 FMblocodemadeira~ + ADSRlinear~;
#X text 2225 372 FMmetal~ + Rexponencial~;
#X text 20 352 FMblocodemadeira~ + Rexponencial~;
#X text 35 366 FMtambor~ + ARtambor~;
#X obj 605 161 del 122500;
#X obj 523 238 s PLAY3;
#X obj 523 199 del 12800;
#N canvas 447 70 1166 677 outrodrums 0;
#X obj 52 276 Rexponencial~;
#X msg 127 247 5;
#X obj 89 212 loadbang;
#X obj 367 330 Rexponencial~;
#X obj 367 380 FMsino~;
#X obj 480 231 loadbang;
#X msg 442 277 10;
#X obj 50 146 metro 200;
#X obj 52 379 FMsino~;
#X msg 89 248 75;
#X msg 91 353 5000;
#X msg 404 277 500;
#X msg 480 345 1000;
#X obj 52 426 *~ 1;
#X obj 367 148 metro 1600;
#X obj 68 48 r STOP;
#X obj 52 507 throw~ outrodrum;
#X obj 589 434 Fmblocodemadeira~;
#X obj 589 347 Rexponencial~;
#X obj 626 267 loadbang;
#X msg 664 309 10;
#X obj 589 228 del 800;
#X msg 626 310 100;
#X msg 688 406 700;
#X obj 367 422 *~ 0.1;
#X obj 52 464 *~ 0.3;
#X msg 69 93 stop;
#X obj 848 400 ARtambor~;
#X obj 849 500 FMtambor~;
#X obj 849 590 throw~ outrodrum;
#X msg 900 466 40;
#X msg 863 333 0.8;
#X obj 906 292 bng 15 250 50 0 empty empty empty 17 7 0 10 -262144
-1 -1;
#X msg 937 335 1;
#X msg 979 337 1;
#X obj 906 263 loadbang;
#X msg 906 334 100;
#X msg 1023 338 500;
#X obj 126 50 r PLAY3;
#X obj 589 472 *~ 1;
#X obj 849 549 *~ 0.5;
#X obj 126 76 del 44800;
#X obj 50 -3 r PLAY3;
#X obj 91 326 loadbang;
#X obj 367 467 throw~ outrodrum;
#X obj 589 517 throw~ outrodrum;
#X obj 367 -2 r PLAY3;
#X obj 449 51 r STOP;
#X msg 450 96 stop;
#X obj 507 53 r PLAY3;
#X obj 507 79 del 44800;
#X obj 848 150 metro 1600;
#X obj 848 -3 r PLAY3;
#X obj 930 50 r STOP;
#X msg 931 95 stop;
#X obj 988 52 r PLAY3;
#X obj 988 78 del 44800;
#X obj 900 443 loadbang;
#X obj 688 380 loadbang;
#X text 199 51 Parar a bateria apos 44.8s;
#X text 195 65 (ou ao receber o comando de parada);
#X text 112 146 A cada 200ms \, uma nota e tocada;
#X text 95 575 Hihat --> FMsino~ + Rexponencial~;
#X text 94 593 Cowbell --> FMsino~ + Rexponencial~;
#X text 93 612 Caixa --> FMblocodemadeira~ + Rexponencial~;
#X text 93 630 Bumbo --> FMtabor + ARtambor~;
#X text 474 151 A cada 1600ms \, ou seja \, a cada 2 tempos do compasso
\, uma nota e tocada;
#X text 639 227 Deslocamento de 1 tempo;
#X text 435 150 <--;
#X text 824 151 -->;
#X connect 0 0 8 0;
#X connect 1 0 0 2;
#X connect 2 0 1 0;
#X connect 2 0 9 0;
#X connect 3 0 4 0;
#X connect 4 0 24 0;
#X connect 5 0 6 0;
#X connect 5 0 11 0;
#X connect 5 0 12 0;
#X connect 6 0 3 2;
#X connect 7 0 0 0;
#X connect 8 0 13 0;
#X connect 9 0 0 1;
#X connect 10 0 8 1;
#X connect 11 0 3 1;
#X connect 12 0 4 1;
#X connect 13 0 25 0;
#X connect 14 0 3 0;
#X connect 14 0 21 0;
#X connect 15 0 26 0;
#X connect 17 0 39 0;
#X connect 18 0 17 0;
#X connect 19 0 20 0;
#X connect 19 0 22 0;
#X connect 20 0 18 2;
#X connect 21 0 18 0;
#X connect 22 0 18 1;
#X connect 23 0 17 1;
#X connect 24 0 44 0;
#X connect 25 0 16 0;
#X connect 26 0 7 0;
#X connect 27 0 28 0;
#X connect 28 0 40 0;
#X connect 30 0 28 1;
#X connect 31 0 27 1;
#X connect 32 0 36 0;
#X connect 32 0 31 0;
#X connect 32 0 33 0;
#X connect 32 0 37 0;
#X connect 32 0 34 0;
#X connect 33 0 27 3;
#X connect 34 0 27 5;
#X connect 35 0 32 0;
#X connect 36 0 27 2;
#X connect 37 0 27 4;
#X connect 38 0 41 0;
#X connect 39 0 45 0;
#X connect 40 0 29 0;
#X connect 41 0 26 0;
#X connect 42 0 7 0;
#X connect 43 0 10 0;
#X connect 46 0 14 0;
#X connect 47 0 48 0;
#X connect 48 0 14 0;
#X connect 49 0 50 0;
#X connect 50 0 48 0;
#X connect 51 0 27 0;
#X connect 52 0 51 0;
#X connect 53 0 54 0;
#X connect 54 0 51 0;
#X connect 55 0 56 0;
#X connect 56 0 54 0;
#X connect 57 0 30 0;
#X connect 58 0 23 0;
#X restore 1024 40 pd outrodrums;
#N canvas 0 50 1600 818 outro 0;
#X obj 87 526 ADSRlinear~;
#X obj 88 554 FMblocodemadeira~;
#X obj 22 408 bng 15 250 50 0 empty empty empty 17 7 0 10 -262144 -1
-1;
#X obj 143 361 bng 15 250 50 0 empty empty empty 17 7 0 10 -262144
-1 -1;
#X msg 74 398 1;
#X msg 105 407 50;
#X msg 150 408 0.2;
#X msg 190 410 500;
#X msg 230 411 50;
#X msg 268 416 100;
#X obj 426 462 mtof;
#X obj 435 125 counter;
#X obj 435 165 % 4;
#X obj 435 229 sel 0 1 2 3;
#X floatatom 478 192 5 0 0 0 - - -, f 5;
#X obj 435 93 metro 800;
#X msg 396 310 50;
#X msg 352 310 53;
#X msg 438 313 53;
#X msg 476 313 50;
#X msg 514 314 49;
#X msg 559 317 43;
#X msg 600 317 43;
#X msg 637 317 44;
#X obj 559 281 del 600;
#X obj 637 282 del 200;
#X obj 396 282 del 600;
#X obj 476 281 del 200;
#X obj 435 16 r PLAY2;
#X obj 165 639 r PLAY2;
#X obj 105 748 line~;
#X msg 144 691 1 5000;
#X obj 89 777 *~;
#X obj 158 305 loadbang;
#X obj 514 17 r STOP;
#X obj 426 491 t b f;
#X obj 435 53 t b b;
#X obj 847 418 mtof;
#X obj 687 757 * 4;
#X obj 752 1012 FMmetal~;
#X obj 774 758 * 2;
#X obj 506 929 Rexponencial~;
#X msg 651 912 1;
#X obj 507 1014 FMmetal~;
#X obj 648 669 t b f f;
#X obj 651 889 loadbang;
#X obj 1863 440 bng 15 250 50 0 empty empty empty 17 7 0 10 -262144
-1 -1;
#X msg 1819 488 20;
#X obj 1768 590 ADSRlinear~;
#X msg 1778 488 1;
#X msg 1924 492 100;
#X msg 1993 495 1600;
#X msg 2042 499 300;
#X msg 1885 492 0.5;
#X msg 1533 681 0;
#X obj 1520 503 t b f f;
#X obj 1501 612 / 2;
#X obj 1649 613 / 4;
#X obj 1774 715 FMtambor~;
#X obj 1476 713 FMfagote~;
#X obj 1863 398 loadbang;
#X obj 1533 650 loadbang;
#X obj 1476 949 throw~ outrobass;
#X obj 508 1108 *~;
#X obj 876 1092 line~;
#X msg 876 1065 0 0;
#X obj 876 1027 loadbang;
#X obj 935 1027 r PLAY3;
#X msg 922 1065 1 0;
#X obj 1477 897 *~;
#X obj 1575 881 line~;
#X msg 1575 853 0 0;
#X obj 1562 795 loadbang;
#X obj 1620 795 r PLAY3;
#X msg 1610 853 1 0;
#X obj 906 834 r PLAY3;
#X msg 790 909 1;
#X msg 906 902 5;
#X obj 393 816 r PLAY3;
#X msg 393 874 5000;
#X msg 543 878 500;
#X obj 822 1026 r PLAY2;
#X obj 1512 795 r PLAY2;
#X obj 543 814 r PLAY2;
#X obj 906 856 del 12800;
#X obj 393 844 del 12800;
#X obj 1775 896 *~;
#X obj 1885 880 line~;
#X msg 1885 823 0 0;
#X obj 1885 775 loadbang;
#X msg 1951 823 1 0;
#X obj 1827 775 r PLAY2;
#X obj 1775 944 throw~ outrosubass;
#X obj 89 804 throw~ outrofrase;
#X obj 509 1162 throw~ outroacompanhamento;
#X msg 514 54 stop;
#X obj 216 640 r PLAY3;
#X msg 105 690 0 0;
#X obj 105 638 loadbang;
#X obj 1951 773 r PLAY3;
#X obj 216 669 del 38400;
#X obj 600 576 *;
#X obj 615 547 line;
#X msg 595 462 0 0;
#X msg 645 463 1 0;
#X obj 645 409 r PLAY3;
#X obj 645 439 del 25600;
#X obj 595 409 r PLAY2;
#X obj 600 618 sel 0;
#X obj 1991 799 del 51200;
#X obj 1650 830 del 51200;
#X obj 973 1043 del 51200;
#X msg 973 1066 0 10000;
#X msg 1650 854 0 10000;
#X text 564 233 A cada tempo do compasso \, uma ou mais notas sao tocadas
\, com um delay entre elas.;
#X text 499 92 Tempo entre cada tempo do compasso = 800ms;
#X msg 216 690 0 0;
#X text 128 618 Fade ins e outs;
#X msg 1991 824 0 0;
#X text 1859 754 Fade ins e outs;
#X text 1544 775 Fade ins e outs;
#X text 875 1010 Fade ins e outs;
#X text 1852 588 Envelope dos dois baixos;
#X text 1345 442 Os baixos so recebem as notas correspondentes ao 1o
e 3o tempo do compasso;
#X text 973 839 Os dois FMmetal~ sao inicializados com detune = 1Hz
\, e em certo ponto recebem detune = 5Hz \, e depois disso detune =
1Hz novamente.;
#X obj 790 833 r PLAY2;
#X obj 840 833 r PLAY3;
#X obj 840 856 del 25600;
#X text 707 658 A cada nota recebida \, o trigger faz 3 acoes: mandar
o pitch para um FMmetal~ \, mandar o mesmo pitch para outro FMmetal~
\, e dar um bang no envelope dos dois FMmetal~.;
#X text 801 756 O pitch de um FMmetal~ esta uma oitava acima do outro
;
#X obj 593 814 r PLAY3;
#X obj 593 841 del 25600;
#X obj 462 845 del 38400;
#X text 280 785 A duracao da nota e inicializada em 500ms \, em certo
ponto recebe 5000ms \, apos isso recebe novamente 500ms \, e finalmente
5000ms.;
#X text 692 459 O instrumento de acompanhamento inicialmente so recebe
as notas tocadas no 1o e 3o tempo do compasso \, como o baixo. Porem
\, isso muda no meio da parte 2 \, onde o acompanhamento toca a mesma
frase que o instrumento principal.;
#X text 656 544 O papel desse [line] \, [*] e [sel 0] e fazer o instrumento
de acompanhamento \, a partir de certo ponto \, tocar todas as notas
da frase principal.;
#X text 1214 611 O FMtambor~ esta uma oitava abaixo do FMfagote~;
#X connect 0 0 1 0;
#X connect 1 0 32 0;
#X connect 2 0 0 0;
#X connect 3 0 4 0;
#X connect 3 0 5 0;
#X connect 3 0 6 0;
#X connect 3 0 7 0;
#X connect 3 0 8 0;
#X connect 3 0 9 0;
#X connect 4 0 0 1;
#X connect 5 0 0 2;
#X connect 6 0 0 3;
#X connect 7 0 0 4;
#X connect 8 0 0 5;
#X connect 9 0 0 6;
#X connect 10 0 35 0;
#X connect 10 0 101 0;
#X connect 11 0 12 0;
#X connect 12 0 13 0;
#X connect 12 0 14 0;
#X connect 13 0 17 0;
#X connect 13 0 26 0;
#X connect 13 1 18 0;
#X connect 13 1 27 0;
#X connect 13 2 20 0;
#X connect 13 2 24 0;
#X connect 13 3 22 0;
#X connect 13 3 25 0;
#X connect 15 0 11 0;
#X connect 16 0 10 0;
#X connect 17 0 10 0;
#X connect 17 0 37 0;
#X connect 18 0 10 0;
#X connect 19 0 10 0;
#X connect 20 0 10 0;
#X connect 20 0 37 0;
#X connect 21 0 10 0;
#X connect 22 0 10 0;
#X connect 23 0 10 0;
#X connect 24 0 21 0;
#X connect 25 0 23 0;
#X connect 26 0 16 0;
#X connect 27 0 19 0;
#X connect 28 0 36 0;
#X connect 29 0 31 0;
#X connect 30 0 32 1;
#X connect 31 0 30 0;
#X connect 32 0 93 0;
#X connect 33 0 3 0;
#X connect 34 0 95 0;
#X connect 35 0 2 0;
#X connect 35 1 1 1;
#X connect 36 0 15 0;
#X connect 36 1 11 2;
#X connect 37 0 44 0;
#X connect 37 0 55 0;
#X connect 38 0 43 1;
#X connect 39 0 63 0;
#X connect 40 0 39 1;
#X connect 41 0 43 0;
#X connect 41 0 39 0;
#X connect 42 0 41 2;
#X connect 43 0 63 0;
#X connect 44 0 41 0;
#X connect 44 1 38 0;
#X connect 44 2 40 0;
#X connect 45 0 42 0;
#X connect 46 0 49 0;
#X connect 46 0 47 0;
#X connect 46 0 53 0;
#X connect 46 0 50 0;
#X connect 46 0 51 0;
#X connect 47 0 48 2;
#X connect 48 0 58 0;
#X connect 48 0 59 0;
#X connect 49 0 48 1;
#X connect 50 0 48 4;
#X connect 51 0 48 5;
#X connect 52 0 48 6;
#X connect 53 0 48 3;
#X connect 54 0 59 2;
#X connect 55 0 48 0;
#X connect 55 1 56 0;
#X connect 55 2 57 0;
#X connect 56 0 59 1;
#X connect 57 0 58 1;
#X connect 58 0 86 0;
#X connect 59 0 69 0;
#X connect 60 0 46 0;
#X connect 61 0 54 0;
#X connect 63 0 94 0;
#X connect 64 0 63 1;
#X connect 65 0 64 0;
#X connect 66 0 65 0;
#X connect 67 0 68 0;
#X connect 67 0 111 0;
#X connect 68 0 64 0;
#X connect 69 0 62 0;
#X connect 70 0 69 1;
#X connect 71 0 70 0;
#X connect 72 0 71 0;
#X connect 73 0 74 0;
#X connect 73 0 110 0;
#X connect 74 0 70 0;
#X connect 75 0 84 0;
#X connect 76 0 43 2;
#X connect 76 0 39 2;
#X connect 77 0 39 2;
#X connect 77 0 43 2;
#X connect 78 0 85 0;
#X connect 78 0 132 0;
#X connect 79 0 41 1;
#X connect 80 0 41 1;
#X connect 81 0 65 0;
#X connect 82 0 71 0;
#X connect 83 0 80 0;
#X connect 84 0 77 0;
#X connect 85 0 79 0;
#X connect 86 0 92 0;
#X connect 87 0 86 1;
#X connect 88 0 87 0;
#X connect 89 0 88 0;
#X connect 90 0 87 0;
#X connect 91 0 88 0;
#X connect 95 0 15 0;
#X connect 96 0 100 0;
#X connect 97 0 30 0;
#X connect 98 0 97 0;
#X connect 99 0 90 0;
#X connect 99 0 109 0;
#X connect 100 0 116 0;
#X connect 101 0 108 0;
#X connect 102 0 101 1;
#X connect 103 0 102 0;
#X connect 104 0 102 0;
#X connect 105 0 106 0;
#X connect 106 0 104 0;
#X connect 107 0 103 0;
#X connect 108 1 44 0;
#X connect 109 0 118 0;
#X connect 110 0 113 0;
#X connect 111 0 112 0;
#X connect 112 0 64 0;
#X connect 113 0 70 0;
#X connect 116 0 30 0;
#X connect 118 0 87 0;
#X connect 125 0 76 0;
#X connect 126 0 127 0;
#X connect 127 0 76 0;
#X connect 130 0 131 0;
#X connect 131 0 80 0;
#X connect 132 0 79 0;
#X restore 1108 40 pd outro;
#X text 17 60 This piece is divided in two parts: on the first one
\, I used original MIDI scores for instruments based on the ones described
in the paper \, with the corresponding envelopes.;
#X text 19 105 In the second part \, no MIDI score is used \, and the
"score" is produced using objects like [delay] \, [line~] \, [metro]
\, [select] \, [%] \, etc. I've also taken more liberty to experiment
with FM instruments using different envelopes from the ones "recommended"
for that type of sound. For example \, the second part's main melody
line is performed with a snare and a ADSR envelope.;
#X text 19 202 Within every subpatch [pd instrument_name] \, there
is one or more [throw~] objets that are received below and have their
volume and panning (represented as a horizontal slider) adjusted and
then sent to the master bus. I've done this to emulate the channels
strips of a DAW or console.;
#X text 19 270;
#X text 477 103 Click here to play -->;
#X text 737 101 Click here to pause -->;
#X text 1008 100 Click here to stop -->;
#X text 664 203 2nd part play;
#X text 582 238 2nd part drums play;
#X text 1765 626 ---------2nd part channels---------------;
#X text 663 626 1st part channels;
#X text 1098 257 Seconds since beginning of the reproduction -->;
#X text 661 20 <------1st part MIDI scores------->;
#X text 1026 22 <------2nd part----->;
#X connect 2 0 5 0;
#X connect 2 0 134 0;
#X connect 3 0 6 0;
#X connect 4 0 7 0;
#X connect 10 0 11 1;
#X connect 11 0 14 0;
#X connect 11 1 15 0;
#X connect 12 0 13 0;
#X connect 13 0 10 0;
#X connect 16 0 120 0;
#X connect 17 0 120 1;
#X connect 18 0 19 1;
#X connect 19 0 21 0;
#X connect 19 1 22 0;
#X connect 20 0 109 0;
#X connect 23 0 55 0;
#X connect 24 0 25 1;
#X connect 25 0 28 0;
#X connect 25 1 29 0;
#X connect 26 0 27 0;
#X connect 27 0 24 0;
#X connect 30 0 25 0;
#X connect 31 0 30 0;
#X connect 32 0 33 1;
#X connect 33 0 35 0;
#X connect 33 1 36 0;
#X connect 34 0 56 0;
#X connect 37 0 38 1;
#X connect 37 0 53 0;
#X connect 38 0 40 0;
#X connect 38 1 41 0;
#X connect 39 0 57 0;
#X connect 42 0 52 0;
#X connect 43 0 59 0;
#X connect 44 0 45 1;
#X connect 45 0 48 0;
#X connect 45 1 49 0;
#X connect 46 0 47 0;
#X connect 47 0 44 0;
#X connect 50 0 100 0;
#X connect 51 0 54 0;
#X connect 52 0 33 0;
#X connect 54 0 11 0;
#X connect 55 0 19 0;
#X connect 56 0 32 0;
#X connect 57 0 37 0;
#X connect 59 0 38 0;
#X connect 62 0 119 0;
#X connect 64 0 118 0;
#X connect 64 1 62 0;
#X connect 65 0 64 0;
#X connect 66 0 101 0;
#X connect 67 0 68 1;
#X connect 68 0 71 0;
#X connect 68 1 72 0;
#X connect 69 0 70 0;
#X connect 70 0 67 0;
#X connect 73 0 74 1;
#X connect 74 0 76 0;
#X connect 74 1 77 0;
#X connect 75 0 93 0;
#X connect 78 0 79 1;
#X connect 79 0 81 0;
#X connect 79 1 82 0;
#X connect 80 0 92 0;
#X connect 83 0 106 0;
#X connect 84 0 105 0;
#X connect 85 0 104 0;
#X connect 86 0 87 1;
#X connect 87 0 89 0;
#X connect 87 1 90 0;
#X connect 88 0 108 0;
#X connect 91 0 102 0;
#X connect 92 0 78 0;
#X connect 93 0 73 0;
#X connect 94 0 95 1;
#X connect 95 0 97 0;
#X connect 95 1 98 0;
#X connect 96 0 107 0;
#X connect 99 0 103 0;
#X connect 100 0 45 0;
#X connect 101 0 118 0;
#X connect 102 0 87 0;
#X connect 103 0 95 0;
#X connect 104 0 79 0;
#X connect 105 0 74 0;
#X connect 106 0 68 0;
#X connect 107 0 94 0;
#X connect 108 0 86 0;
#X connect 109 0 18 0;
#X connect 118 0 62 1;
#X connect 119 0 63 0;
#X connect 134 0 61 0;
#X connect 134 0 136 0;
#X connect 136 0 135 0;
